# xmcd
#
# Track frame offsets:
#	150
#	16378
#	28206
#	48196
#	67011
#	93287
#	113362
#	126707
#	139489
#	152990
#	165490
#
# Disc length: 2325 seconds
#
# Revision: 1
# Processed by: cddbd v1.5.2PL0 Copyright (c) Steve Scherf et al.
# Submitted via: audiograbber 1.82.01
#
DISCID=9609130b
DTITLE=Otis Gibbs - Harder than Hammered Hell
DYEAR=2012
DGENRE=Country
TTITLE0=Never Enough
TTITLE1=Made to Break
TTITLE2=Broke and Restless
TTITLE3=Don't Worry Kid
TTITLE4=Big Whiskers
TTITLE5=Christ Number Three
TTITLE6=The Land of Maybe
TTITLE7=Detroit Steel
TTITLE8=Dear Misery
TTITLE9=Second Best
TTITLE10=Blues for MacKensie
EXTD=
EXTT0=
EXTT1=
EXTT2=
EXTT3=
EXTT4=
EXTT5=
EXTT6=
EXTT7=
EXTT8=
EXTT9=
EXTT10=
PLAYORDER=
